REM DIRINDEX 1\2,1\4,1\3\5,1\3\6,1\3\7
REM DIRNAME folder01,folder02,folder03,folder04,folder05,folder06,folder07
TITLE ""
FILE "CD1Track43.mp3" MP3
  TRACK 01 AUDIO
    TITLE "0:"
    INDEX 01 00:00:00
  TRACK 02 AUDIO
    TITLE "4:cjc081_0740"
    INDEX 01 00:00:23
  TRACK 03 AUDIO
    TITLE "0:"
    INDEX 01 00:04:36
  TRACK 04 AUDIO
    TITLE "5:cjc081_0741"
    INDEX 01 00:05:05
  TRACK 05 AUDIO
    TITLE "0:"
    INDEX 01 00:06:14
  TRACK 06 AUDIO
    TITLE "6:cjc081_0742"
    INDEX 01 00:06:61
  TRACK 07 AUDIO
    TITLE "0:"
    INDEX 01 00:10:72
  TRACK 08 AUDIO
    TITLE "5:cjc081_0743"
    INDEX 01 00:11:42
  TRACK 09 AUDIO
    TITLE "0:"
    INDEX 01 00:13:08
  TRACK 10 AUDIO
    TITLE "6:cjc081_0744"
    INDEX 01 00:13:49
  TRACK 11 AUDIO
    TITLE "0:"
    INDEX 01 00:14:74
  TRACK 12 AUDIO
    TITLE "5:cjc081_0745"
    INDEX 01 00:15:40
  TRACK 13 AUDIO
    TITLE "0:"
    INDEX 01 00:16:69
  TRACK 14 AUDIO
    TITLE "6:cjc081_0746"
    INDEX 01 00:17:45
  TRACK 15 AUDIO
    TITLE "0:"
    INDEX 01 00:19:34
  TRACK 16 AUDIO
    TITLE "5:cjc081_0747"
    INDEX 01 00:20:06
  TRACK 17 AUDIO
    TITLE "0:"
    INDEX 01 00:21:43
  TRACK 18 AUDIO
    TITLE "6:cjc081_0748"
    INDEX 01 00:22:17
  TRACK 19 AUDIO
    TITLE "0:"
    INDEX 01 00:23:38
  TRACK 20 AUDIO
    TITLE "5:cjc081_0749"
    INDEX 01 00:24:12
  TRACK 21 AUDIO
    TITLE "0:"
    INDEX 01 00:25:46
  TRACK 22 AUDIO
    TITLE "6:cjc081_0750"
    INDEX 01 00:26:18
  TRACK 23 AUDIO
    TITLE "0:"
    INDEX 01 00:27:41
  TRACK 24 AUDIO
    TITLE "5:cjc081_0751"
    INDEX 01 00:28:12
  TRACK 25 AUDIO
    TITLE "0:"
    INDEX 01 00:29:48
  TRACK 26 AUDIO
    TITLE "6:cjc081_0752"
    INDEX 01 00:30:20
  TRACK 27 AUDIO
    TITLE "0:"
    INDEX 01 00:31:49
  TRACK 28 AUDIO
    TITLE "5:cjc081_0753"
    INDEX 01 00:32:15
  TRACK 29 AUDIO
    TITLE "0:"
    INDEX 01 00:33:28
  TRACK 30 AUDIO
    TITLE "6:cjc081_0754"
    INDEX 01 00:33:73
  TRACK 31 AUDIO
    TITLE "0:"
    INDEX 01 00:35:33
  TRACK 32 AUDIO
    TITLE "5:cjc081_0755"
    INDEX 01 00:35:74
  TRACK 33 AUDIO
    TITLE "0:"
    INDEX 01 00:37:16
  TRACK 34 AUDIO
    TITLE "6:cjc081_0756"
    INDEX 01 00:37:57
  TRACK 35 AUDIO
    TITLE "0:"
    INDEX 01 00:39:41
  TRACK 36 AUDIO
    TITLE "5:cjc081_0757"
    INDEX 01 00:40:09
  TRACK 37 AUDIO
    TITLE "0:"
    INDEX 01 00:41:47
  TRACK 38 AUDIO
    TITLE "6:cjc081_0758"
    INDEX 01 00:42:16
  TRACK 39 AUDIO
    TITLE "0:"
    INDEX 01 00:44:26
  TRACK 40 AUDIO
    TITLE "5:cjc081_0759"
    INDEX 01 00:44:67
  TRACK 41 AUDIO
    TITLE "0:"
    INDEX 01 00:46:06
  TRACK 42 AUDIO
    TITLE "6:cjc081_0760"
    INDEX 01 00:46:53
  TRACK 43 AUDIO
    TITLE "0:"
    INDEX 01 00:47:68
  TRACK 44 AUDIO
    TITLE "5:cjc081_0761"
    INDEX 01 00:48:38
  TRACK 45 AUDIO
    TITLE "0:"
    INDEX 01 00:50:07
  TRACK 46 AUDIO
    TITLE "6:cjc081_0762"
    INDEX 01 00:50:50
  TRACK 47 AUDIO
    TITLE "0:"
    INDEX 01 00:52:55
  TRACK 48 AUDIO
    TITLE "5:cjc081_0763"
    INDEX 01 00:53:23
  TRACK 49 AUDIO
    TITLE "0:"
    INDEX 01 00:54:50
  TRACK 50 AUDIO
    TITLE "6:cjc081_0764"
    INDEX 01 00:55:20
  TRACK 51 AUDIO
    TITLE "0:"
    INDEX 01 00:56:47
  TRACK 52 AUDIO
    TITLE "5:cjc081_0765"
    INDEX 01 00:57:19
  TRACK 53 AUDIO
    TITLE "0:"
    INDEX 01 00:58:28
  TRACK 54 AUDIO
    TITLE "6:cjc081_0766"
    INDEX 01 00:58:67
  TRACK 55 AUDIO
    TITLE "0:"
    INDEX 01 00:59:71
  TRACK 56 AUDIO
    TITLE "5:cjc081_0767"
    INDEX 01 01:00:43
  TRACK 57 AUDIO
    TITLE "0:"
    INDEX 01 01:01:68
  TRACK 58 AUDIO
    TITLE "6:cjc081_0768"
    INDEX 01 01:02:42
  TRACK 59 AUDIO
    TITLE "0:"
    INDEX 01 01:04:09
  TRACK 60 AUDIO
    TITLE "5:cjc081_0769"
    INDEX 01 01:04:52
  TRACK 61 AUDIO
    TITLE "0:"
    INDEX 01 01:06:06
  TRACK 62 AUDIO
    TITLE "6:cjc081_0770"
    INDEX 01 01:06:53
  TRACK 63 AUDIO
    TITLE "0:"
    INDEX 01 01:08:19
  TRACK 64 AUDIO
    TITLE "5:cjc081_0771"
    INDEX 01 01:08:66
  TRACK 65 AUDIO
    TITLE "0:"
    INDEX 01 01:10:14
  TRACK 66 AUDIO
    TITLE "6:cjc081_0772"
    INDEX 01 01:10:65
  TRACK 67 AUDIO
    TITLE "0:"
    INDEX 01 01:14:74
  TRACK 68 AUDIO
    TITLE "5:cjc081_0773"
    INDEX 01 01:15:42
  TRACK 69 AUDIO
    TITLE "0:"
    INDEX 01 01:16:56
  TRACK 70 AUDIO
    TITLE "6:cjc081_0774"
    INDEX 01 01:17:30
  TRACK 71 AUDIO
    TITLE "0:"
    INDEX 01 01:19:01
  TRACK 72 AUDIO
    TITLE "5:cjc081_0775"
    INDEX 01 01:19:48
  TRACK 73 AUDIO
    TITLE "0:"
    INDEX 01 01:20:61
  TRACK 74 AUDIO
    TITLE "6:cjc081_0776"
    INDEX 01 01:21:31
  TRACK 75 AUDIO
    TITLE "0:"
    INDEX 01 01:23:34
  TRACK 76 AUDIO
    TITLE "5:cjc081_0777"
    INDEX 01 01:24:02
  TRACK 77 AUDIO
    TITLE "0:"
    INDEX 01 01:25:21
  TRACK 78 AUDIO
    TITLE "6:cjc081_0778"
    INDEX 01 01:25:66
  TRACK 79 AUDIO
    TITLE "0:"
    INDEX 01 01:27:51
  TRACK 80 AUDIO
    TITLE "5:cjc081_0779"
    INDEX 01 01:28:18
  TRACK 81 AUDIO
    TITLE "0:"
    INDEX 01 01:29:35
  TRACK 82 AUDIO
    TITLE "6:cjc081_0780"
    INDEX 01 01:30:05
  TRACK 83 AUDIO
    TITLE "0:"
    INDEX 01 01:34:34
  TRACK 84 AUDIO
    TITLE "5:cjc081_0781"
    INDEX 01 01:35:06
  TRACK 85 AUDIO
    TITLE "0:"
    INDEX 01 01:36:35
  TRACK 86 AUDIO
    TITLE "6:cjc081_0782"
    INDEX 01 01:37:05
  TRACK 87 AUDIO
    TITLE "0:"
    INDEX 01 01:38:47
  TRACK 88 AUDIO
    TITLE "5:cjc081_0783"
    INDEX 01 01:39:15
  TRACK 89 AUDIO
    TITLE "0:"
    INDEX 01 01:40:25
  TRACK 90 AUDIO
    TITLE "6:cjc081_0784"
    INDEX 01 01:41:05
  TRACK 91 AUDIO
    TITLE "0:"
    INDEX 01 01:44:17
  TRACK 92 AUDIO
    TITLE "5:cjc081_0785"
    INDEX 01 01:44:60
  TRACK 93 AUDIO
    TITLE "0:"
    INDEX 01 01:46:08
  TRACK 94 AUDIO
    TITLE "6:cjc081_0786"
    INDEX 01 01:46:53
  TRACK 95 AUDIO
    TITLE "0:"
    INDEX 01 01:48:07
  TRACK 96 AUDIO
    TITLE "7:cjc081_0787"
    INDEX 01 01:49:45
  TRACK 97 AUDIO
    TITLE "0:"
    INDEX 01 02:00:49
